<svg width="48" height="48" xmlns="http://www.w3.org/2000/svg">

 <g>
  <title>background</title>
  <rect fill="none" id="canvas_background" height="402" width="582" y="-1" x="-1"/>
 </g>
 <g>
  <title>Layer 1</title>
  <path id="svg_1" fill="#333333" d="m45.784,35.596c-1.111,-8.562 -7.126,-15.581 -15.15,-18.122l0,-5.979l0,-0.998l0,-0.95l-0.951,0l-0.511,0l-10.533,0l-0.354,0l-0.949,0l0,0.95l0,1.234l0,5.742c-8.025,2.541 -14.039,9.56 -15.152,18.122l-2.184,0l0,2.857l1.977,0l1.333,0l1.424,0l38.501,0l1.123,0l1.634,0l1.977,0l0,-2.857l-2.185,0l0,0.001zm-26.549,-22.405l0,-0.795l0,-0.95l0.95,0l0.565,0l6.153,0l0.88,0l0.952,0l0,0.95l0,1.229l0,3.349c-1.532,-0.337 -3.119,-0.528 -4.751,-0.528c-1.632,0 -3.218,0.191 -4.75,0.528l0,-3.783l0.001,0zm15.725,19.855c-1.712,-5.202 -5.823,-9.313 -11.028,-11.027c0.018,0 0.035,-0.003 0.052,-0.003c7.344,0 13.603,4.578 16.121,11.03l-5.145,0z"/>
 </g>
</svg>