<svg width="512" height="512" xmlns="http://www.w3.org/2000/svg">

 <g>
  <title>background</title>
  <rect fill="none" id="canvas_background" height="402" width="582" y="-1" x="-1"/>
 </g>
 <g>
  <title>Layer 1</title>
  <path fill="#333333" id="svg_2" d="m153.3,321.7c-15.1,-25.8 -22.1,-55.8 -19.6,-85.9c2.8,-34.4 17.8,-66.9 42.3,-91.3c5.9,-5.9 12.2,-11.2 18.9,-16l0,-101.4l-116.6,0l0,369.3c0.1,0 0.2,0 0.3,0l74.7,-74.7z" class="st0"/>
  <polygon fill="#333333" id="svg_3" points="194.8,402.1 194.8,384 176.8,402.1  " class="st0"/>
  <path fill="#333333" id="svg_4" d="m339.4,114.7l0,-30.7l-130.6,-56.9l0,92.6c21.5,-11.8 45.6,-18 70.3,-18c20.8,0 41.5,4.5 60.3,13z" class="st0"/>
  <path fill="#333333" id="svg_5" d="m240.8,388.6c-11.1,-3 -21.8,-7.4 -32,-12.9l0,26.4l130.6,56.9l0,-78.2c-18.8,8.5 -39.5,13 -60.2,13c-13.1,-0.1 -26,-1.8 -38.4,-5.2z" class="st0"/>
  <path fill="#333333" id="svg_6" d="m353.4,77.9l0,44c10.6,6.2 20.3,13.8 29,22.5c27.6,27.6 42.8,64.2 42.8,103.3c0,39 -15.2,75.7 -42.8,103.3c-8.7,8.7 -18.5,16.3 -29,22.6l0,79.4l116.6,-50.9l0,-375l-116.6,50.8z" class="st0"/>
  <path fill="#333333" id="svg_7" d="m372.6,154.4c-10,-10 -21.2,-18 -33.1,-24.2c-41.1,-21.1 -91,-19.2 -130.6,5.8c-8.2,5.1 -15.9,11.3 -23,18.4c-46.1,46.1 -51,117.7 -14.7,169.3l-78.5,78.5l-8.6,8.6c-11.1,-1.4 -22.7,2.1 -31.2,10.6c-14.6,14.6 -14.6,38.2 0,52.8c14.6,14.6 38.2,14.6 52.8,0c8.5,-8.5 12,-20.1 10.6,-31.2l40.8,-40.8l46.3,-46.3c1.8,1.3 3.7,2.5 5.5,3.7c39.5,25 89.4,26.9 130.6,5.8c11.9,-6.1 23.2,-14.2 33.1,-24.2c51.5,-51.7 51.5,-135.3 0,-186.8zm-33.2,169.8c-38.2,30.2 -93.8,27.6 -129,-7.7c-0.5,-0.5 -1,-1 -1.5,-1.6c-36,-37.6 -36,-96.9 0,-134.5c0.5,-0.5 1,-1 1.5,-1.5c35.3,-35.3 90.8,-37.8 129,-7.7c3,2.3 5.9,4.9 8.6,7.7c38,38 38,99.6 0,137.7c-2.7,2.7 -5.6,5.3 -8.6,7.6z" class="st0"/>
 </g>
</svg>