<svg width="512" height="512" xmlns="http://www.w3.org/2000/svg">

 <g>
  <title>background</title>
  <rect fill="none" id="canvas_background" height="402" width="582" y="-1" x="-1"/>
 </g>
 <g>
  <title>Layer 1</title>
  <path fill="#333333" id="svg_2" d="m163.1,261l-59.5,-25.8l-19,19l47.9,47.9c2.6,-7.5 6.7,-14.4 12,-20.3l18.6,-20.8z" class="st0"/>
  <path fill="#333333" id="svg_3" d="m230.2,367.6c-5.9,5.3 -12.8,9.4 -20.3,12l47.9,47.9l19,-19l-25.8,-59.5l-20.8,18.6z" class="st0"/>
  <path fill="#333333" id="svg_4" d="m291.8,117.1c5.1,-5.7 10.5,-11.2 15.9,-16.3l-46.4,-26.1l-29.3,-16.5l-52.7,-29.6l-30.8,30.8l102.9,102.9l40.4,-45.2z" class="st0"/>
  <path fill="#333333" id="svg_5" d="m437.3,250.6l-26.1,-46.3c-1.8,1.9 -3.7,3.9 -5.7,5.9c-3.3,3.3 -6.9,6.7 -10.6,10l-45.1,40.3l102.9,103l30.7,-30.8l-29.6,-52.7l-16.5,-29.4z" class="st0"/>
  <path fill="#333333" id="svg_6" d="m395.6,200.3c2.9,-2.9 5.7,-5.8 8.4,-8.8c28.6,-31.5 48.7,-70.1 58.2,-111.9c2,-8.9 -0.9,-17.3 -6.7,-23s-14.1,-8.7 -23,-6.7c-41.8,9.5 -80.3,29.6 -111.9,58.2c-6.4,5.8 -12.5,11.9 -18.3,18.4l-40.9,45.7l-84.8,94.8l-21.7,24.3c-5.8,6.5 -9.5,14.3 -11.1,22.3c-2.8,14.7 1.5,30.5 12.8,41.8c11.3,11.3 27.1,15.7 41.8,12.9c8.1,-1.5 15.8,-5.2 22.3,-11.1l24.3,-21.7l94.8,-84.8l45.7,-40.8c3.5,-3.2 6.8,-6.4 10.1,-9.6zm-16.3,-88.6c-3.8,0 -7,-3.1 -7,-6.9c0,-3.9 3.1,-7 6.9,-7.1c9.7,-0.1 18.8,3.6 25.6,10.5c6.2,6.2 9.9,14.4 10.4,23.1c0.2,3.9 -2.7,7.2 -6.6,7.4c-0.1,0 -0.3,0 -0.4,0c-3.7,0 -6.8,-2.9 -7,-6.6c-0.3,-5.3 -2.6,-10.3 -6.4,-14.1c-4,-4.1 -9.6,-6.4 -15.5,-6.3l0,0z" class="st0"/>
  <path fill="#333333" id="svg_7" d="m486.6,224.3c-6.4,-6.3 -16.6,-6.3 -23,0l-16,16l1.9,3.4l14.6,26l22.5,-22.4c3.2,-3.2 4.8,-7.3 4.8,-11.5c-0.1,-4.2 -1.7,-8.3 -4.8,-11.5z" class="st0"/>
  <path fill="#333333" id="svg_8" d="m368.3,319.5c-6.4,6.4 -6.4,16.6 0,23c6.4,6.4 16.6,6.4 23,0l10.3,-10.3l-23,-23l-10.3,10.3z" class="st0"/>
  <path fill="#333333" id="svg_9" d="m287.7,48.4c3.2,-3.2 4.8,-7.3 4.8,-11.5c0,-4.2 -1.6,-8.3 -4.8,-11.5c-6.3,-6.4 -16.6,-6.4 -23,0l-22.5,22.5l29.4,16.6l16.1,-16.1z" class="st0"/>
  <path fill="#333333" id="svg_10" d="m169.5,143.7c6.4,6.3 16.7,6.3 23,0l10.4,-10.3l-23,-23l-10.4,10.3c-6.4,6.3 -6.4,16.6 0,23z" class="st0"/>
  <path fill="#333333" id="svg_11" d="m58.5,280.3c-2.7,-2.7 -7.2,-2.7 -9.9,0l-25.9,25.9c-2.7,2.7 -2.7,7.2 0,9.9c1.4,1.4 3.2,2.1 4.9,2.1s3.6,-0.7 4.9,-2.1l25.9,-25.9c2.8,-2.8 2.8,-7.2 0.1,-9.9z" class="st0"/>
  <path fill="#333333" id="svg_12" d="m87.8,319.5l-25.8,25.9c-2.7,2.7 -2.7,7.2 0,9.9c1.4,1.4 3.2,2.1 4.9,2.1s3.6,-0.7 4.9,-2.1l25.9,-25.9c2.7,-2.7 2.7,-7.2 0,-9.9c-2.7,-2.7 -7.1,-2.7 -9.9,0z" class="st0"/>
  <path fill="#333333" id="svg_13" d="m192.5,414.3c-2.7,-2.7 -7.2,-2.7 -9.9,0l-25.9,25.9c-2.7,2.7 -2.7,7.2 0,9.9c1.4,1.4 3.2,2.1 4.9,2.1c1.8,0 3.6,-0.7 4.9,-2.1l25.9,-25.9c2.8,-2.8 2.8,-7.2 0.1,-9.9z" class="st0"/>
  <path fill="#333333" id="svg_14" d="m221.8,453.5l-25.8,25.9c-2.7,2.7 -2.7,7.2 0,9.9c1.4,1.4 3.2,2.1 4.9,2.1s3.6,-0.7 4.9,-2.1l25.9,-25.9c2.7,-2.7 2.7,-7.2 0,-9.9c-2.7,-2.7 -7.1,-2.7 -9.9,0z" class="st0"/>
 </g>
</svg>